<?xml version="1.0" standalone="no"?>
<!DOCTYPE svg PUBLIC "-//W3C//DTD SVG 20010904//EN"
 "http://www.w3.org/TR/2001/REC-SVG-20010904/DTD/svg10.dtd">
<svg version="1.0" xmlns="http://www.w3.org/2000/svg"
 width="2048.000000pt" height="2048.000000pt" viewBox="0 0 2048.000000 2048.000000"
 preserveAspectRatio="xMidYMid meet">

<g transform="translate(0.000000,2048.000000) scale(0.100000,-0.100000)"
fill="#000000" stroke="none">
<path d="M6265 18199 c-298 -54 -535 -172 -729 -363 -203 -201 -320 -445 -361
-751 -22 -167 -22 -14394 0 -14560 26 -197 48 -271 128 -432 173 -350 492
-583 893 -653 89 -16 365 -7 444 13 126 33 174 51 272 100 245 124 440 320
548 551 56 119 68 151 91 240 51 200 49 -47 49 5275 0 4720 1 4953 18 4930 9
-13 23 -35 30 -48 8 -13 22 -39 33 -57 10 -19 28 -51 40 -71 12 -21 25 -42 29
-48 4 -5 25 -41 45 -80 21 -38 50 -88 64 -110 14 -22 31 -49 37 -60 6 -11 23
-42 39 -70 15 -27 51 -90 80 -140 95 -164 168 -289 223 -385 78 -137 86 -150
116 -200 15 -25 29 -53 33 -62 3 -10 9 -18 14 -18 5 0 9 -5 9 -10 0 -10 59
-114 118 -209 12 -20 25 -43 29 -51 7 -15 165 -292 183 -320 5 -8 22 -37 38
-65 16 -27 39 -68 52 -90 12 -22 34 -60 48 -85 14 -25 33 -57 43 -72 11 -14
19 -28 19 -31 0 -10 84 -152 92 -155 4 -2 8 -7 8 -12 0 -5 23 -48 51 -97 28
-48 61 -106 74 -128 12 -22 32 -57 44 -77 11 -21 30 -55 42 -75 12 -21 25 -42
29 -48 4 -5 19 -30 32 -55 53 -95 71 -126 89 -152 11 -14 19 -28 19 -31 0 -3
47 -87 105 -187 58 -100 105 -184 105 -187 0 -3 8 -17 19 -31 18 -26 36 -57
89 -152 13 -25 28 -49 32 -55 4 -5 17 -27 29 -47 12 -21 30 -54 41 -73 11 -19
30 -52 41 -72 23 -40 99 -171 136 -231 12 -21 25 -44 29 -52 4 -8 38 -67 74
-130 37 -63 78 -135 92 -160 58 -103 71 -125 78 -135 9 -11 36 -59 83 -145 16
-30 35 -62 41 -70 11 -15 20 -31 64 -109 13 -25 71 -125 127 -221 56 -96 113
-195 127 -220 59 -105 71 -126 78 -135 4 -5 19 -30 32 -55 14 -25 34 -61 46
-81 11 -20 26 -47 34 -60 7 -13 15 -26 18 -29 6 -6 21 -32 63 -110 17 -30 45
-79 64 -108 18 -29 33 -54 33 -56 0 -3 48 -87 107 -188 58 -101 114 -198 125
-215 10 -18 27 -49 38 -68 11 -19 30 -52 41 -72 12 -21 85 -148 164 -283 78
-135 153 -265 167 -290 57 -102 71 -126 89 -152 11 -14 19 -29 19 -32 0 -3 21
-40 46 -83 53 -88 76 -128 112 -193 14 -25 64 -112 112 -195 48 -82 97 -167
109 -188 36 -63 63 -111 82 -142 20 -34 32 -55 79 -140 18 -33 46 -79 61 -103
16 -24 29 -45 29 -47 0 -2 31 -57 68 -122 38 -65 80 -138 94 -163 29 -52 114
-198 128 -220 5 -8 22 -37 38 -65 16 -27 38 -67 50 -87 42 -73 65 -114 95
-168 16 -30 35 -62 41 -70 6 -8 17 -26 24 -39 8 -13 23 -40 34 -60 12 -20 35
-61 51 -91 17 -30 51 -89 75 -130 25 -41 58 -100 75 -130 17 -30 48 -84 69
-119 21 -34 38 -64 38 -66 0 -2 19 -36 43 -77 24 -40 57 -98 74 -128 63 -113
189 -317 231 -373 84 -112 236 -258 332 -318 163 -102 313 -158 499 -184 132
-19 217 -19 334 0 195 31 334 87 502 198 239 159 418 413 490 692 41 161 39
-159 39 7400 0 6839 -1 7215 -18 7309 -47 265 -164 495 -343 674 -231 231
-524 352 -850 352 -254 0 -471 -67 -688 -213 -92 -62 -240 -212 -306 -310 -65
-98 -149 -263 -149 -295 0 -12 -4 -23 -8 -26 -8 -5 -26 -74 -37 -146 -34 -219
-34 -209 -35 -5092 0 -2752 -4 -4768 -9 -4768 -5 0 -11 8 -14 18 -4 9 -18 37
-33 62 -15 25 -38 65 -52 90 -13 25 -28 50 -32 55 -5 6 -23 37 -41 70 -17 33
-45 79 -60 103 -16 24 -29 45 -29 47 0 2 -31 57 -68 122 -38 65 -80 138 -94
163 -14 25 -37 65 -52 90 -15 25 -29 53 -33 63 -3 9 -9 17 -14 17 -5 0 -9 5
-9 11 0 6 -8 23 -19 37 -10 15 -29 47 -43 72 -14 25 -35 62 -47 83 -11 20 -31
54 -42 75 -12 20 -29 48 -39 62 -9 14 -30 50 -46 80 -15 30 -36 66 -45 80 -16
24 -33 53 -87 150 -14 25 -89 155 -167 290 -79 135 -152 262 -164 283 -11 20
-30 53 -41 72 -11 19 -29 52 -41 73 -12 20 -25 42 -29 47 -4 6 -25 42 -45 80
-21 39 -50 88 -64 110 -14 22 -31 49 -37 60 -6 11 -23 43 -39 70 -15 28 -45
79 -65 115 -36 62 -52 90 -101 178 -12 20 -25 42 -29 47 -4 6 -17 27 -29 48
-35 62 -63 110 -82 142 -10 17 -24 41 -32 55 -7 14 -24 43 -37 65 -12 22 -34
60 -48 85 -14 25 -69 120 -124 213 -54 92 -98 169 -98 171 0 2 -17 33 -38 67
-22 35 -50 84 -64 109 -59 106 -71 126 -78 135 -4 6 -17 26 -27 45 -29 53 -93
163 -103 180 -6 8 -42 71 -81 140 -62 107 -116 201 -200 348 -26 44 -55 95
-80 140 -70 124 -114 198 -118 202 -6 5 -18 26 -65 110 -16 30 -58 104 -93
163 -35 60 -63 110 -63 112 0 1 -18 33 -41 70 -41 69 -62 104 -107 185 -13 25
-28 50 -32 55 -7 9 -15 23 -71 123 -27 47 -187 322 -199 342 -9 13 -99 172
-175 305 -12 22 -32 58 -45 80 -13 22 -34 60 -48 85 -13 25 -31 52 -38 61 -8
8 -14 18 -14 22 0 4 -21 41 -46 84 -51 86 -73 124 -105 181 -11 20 -51 88 -87
151 -37 62 -80 136 -95 165 -16 28 -53 92 -82 141 -29 50 -62 107 -74 128 -12
20 -30 53 -41 72 -11 19 -29 51 -40 70 -11 19 -30 52 -41 73 -81 143 -116 202
-141 239 -15 23 -28 44 -28 46 0 3 -56 103 -125 222 -69 119 -125 218 -125
220 0 2 -13 23 -29 47 -16 24 -43 70 -60 102 -17 33 -35 64 -40 70 -4 6 -20
31 -33 56 -26 46 -51 91 -90 158 -12 20 -28 48 -35 62 -8 14 -22 39 -32 55
-10 17 -28 47 -40 68 -90 159 -93 163 -166 287 -37 63 -81 140 -98 170 -16 30
-33 60 -37 65 -4 6 -17 26 -27 45 -27 49 -95 167 -114 198 -9 15 -26 44 -38
65 -11 20 -31 54 -42 75 -12 20 -30 51 -40 67 -10 17 -27 46 -38 66 -38 70
-146 205 -223 281 -183 179 -392 286 -653 333 -88 16 -299 18 -380 4z"/>
</g>
</svg>
